<?xml version="1.0" encoding="utf-8"?>
<svg xmlns="http://www.w3.org/2000/svg" xmlns:xlink="http://www.w3.org/1999/xlink" id="Ebene_1" x="0px" y="0px" viewBox="0 0 300 138" style="enable-background:new 0 0 300 138;" xml:space="preserve">
<style type="text/css">
	.st0{fill:#C20E1A;}
	.st1{fill:#FFFFFF;}
</style>
<path id="Rechteck_41" class="st0" d="M22.7,0h254.7C289.9,0,300,10.1,300,22.7v92.7c0,12.5-10.1,22.7-22.7,22.7H22.7  C10.1,138,0,127.9,0,115.3V22.7C0,10.1,10.1,0,22.7,0z"/>
<g>
	<path class="st1" d="M86.8,69.2c0-11.8,6-18,14-18c7.9,0,13.7,6.1,13.7,17.7c0,11.8-6,18-14,18C92.7,86.9,86.8,80.9,86.8,69.2z    M107.6,69.1c0-8.2-2.6-11.9-6.9-11.9c-4.2,0-6.9,3.7-6.9,11.9c0,8.2,2.6,11.9,6.9,11.9C104.9,81,107.6,77.3,107.6,69.1z"/>
	<path class="st1" d="M133.7,62.4c0-1.4,0.3-2.5,3.3-2.5s3.3,1.1,3.3,2.5v15.8c0,2.4,0.5,5.5,0.5,6.5c0,0.8-0.3,1.8-3,1.8   c-2.1,0-2.6-0.6-3.5-2.3c-1.7,1.7-4.2,2.7-7,2.7c-4.2,0-7.4-2.2-7.4-7.8V62.4c0-1.4,0.3-2.5,3.3-2.5c3,0,3.3,1.1,3.3,2.5v15.3   c0,2.4,0.8,3.5,3,3.5c1.5,0,3-0.6,4.3-1.4V62.4z"/>
	<path class="st1" d="M147.3,65.2H146c-1.1,0-1.9-0.3-1.9-2.6s0.7-2.6,1.9-2.6h1.3v-4.6c0-1.4,0.3-2.5,3.3-2.5   c2.9,0,3.3,1.1,3.3,2.5v4.6h3.1c1.1,0,1.9,0.3,1.9,2.6s-0.7,2.6-1.9,2.6h-3.1v13.2c0,2.8,1.2,3.1,2.6,3.1c0.4,0,0.7,0,0.9,0   c1.4,0,1.5,1.5,1.5,2.3c0,1.7-0.5,2.2-0.9,2.3c-0.4,0.2-1.5,0.5-3.5,0.5c-4.7,0-7.1-1.9-7.1-6.5V65.2z"/>
	<path class="st1" d="M162.8,52.5c0-1.4,0.3-2.5,3.3-2.5c3,0,3.3,1.1,3.3,2.5v26.7c0,1.8,0.8,2.1,1.4,2.4c0.9,0.4,1.1,1,1.1,2.1   c0,2.7-1.1,2.9-2.3,2.9c-3.2,0-6.7-1.2-6.7-6.6V52.5z"/>
	<path class="st1" d="M181.7,75.4c0.5,4.8,2.5,6.3,6.2,6.3c2.9,0,4.5-0.9,5.5-0.9c1.4,0,1.8,1.9,1.8,3c0,1.2-0.4,1.8-2,2.3   c-1.1,0.4-3.4,1-6.2,1c-7.7,0-12.1-4.2-12.1-13.3c0-9.5,4.8-14.1,11.1-14.1c6.1,0,10,4.2,10,12.8c0,2.3-0.3,3.1-2.7,3.1H181.7z    M189.6,71.1c-0.1-5.1-1.5-6.6-3.7-6.6c-2.3,0-3.9,1.8-4.3,6.6H189.6z"/>
	<path class="st1" d="M201.7,65.2h-1.3c-1.1,0-1.9-0.3-1.9-2.6s0.7-2.6,1.9-2.6h1.3v-4.6c0-1.4,0.3-2.5,3.3-2.5   c2.9,0,3.3,1.1,3.3,2.5v4.6h3.1c1.1,0,1.9,0.3,1.9,2.6s-0.7,2.6-1.9,2.6h-3.1v13.2c0,2.8,1.2,3.1,2.6,3.1c0.4,0,0.7,0,0.9,0   c1.4,0,1.5,1.5,1.5,2.3c0,1.7-0.5,2.2-0.9,2.3c-0.4,0.2-1.5,0.5-3.5,0.5c-4.7,0-7.1-1.9-7.1-6.5V65.2z"/>
</g>
</svg>
